# xmcd
#
# Track frame offsets:
#  150
#  18530
#  32210
#  58760
#  74362
#  98365
#  114490
#  131215
#  153190
#  189222
#  207940
#  243240
#  265305
#  279955
#  298365
#  311982
#
# Disc length: 4444 seconds
#
# Revision: 0
# Processed by: cddbd v1.5.1PL2 Copyright (c) Steve Scherf et al.
# Submitted via: Collectorz.com_Music_Collector 6.9
#
DISCID=ec115a10
DTITLE=Various Artist - Leidsekade Live!
DYEAR=1900
DGENRE=
TTITLE0=The Scene - Steenworp
TTITLE1=Burma Shave - Hippies
TTITLE2=Sjako! - Hurt
TTITLE3=Noordkaap - Het Komt Voor in De Beste Families
TTITLE4=The Jack Of Hearts - Can't Do That No More
TTITLE5=Hans Theessink and The Blue Groove - Maybellene
TTITLE6=The Pilgrims - No Time
TTITLE7=De Dijk - Zo Is Het Goed
TTITLE8=Personnel - Water Under the Bridge
TTITLE9=The Watchman - Brilliant People
TTITLE10=Gotcha! - The Bonesong
TTITLE11=Sleeze Bees - I Don't Want To Live Without You
TTITLE12=Raymond Van Het Groenewoud - Eerlijkheid
TTITLE13=Moondogs - I Could Be Wrong
TTITLE14=Spo Dee O Dee - She Said, She Said
TTITLE15=Harde Smart - Zwarte Vlinder
EXTD=
EXTT0=
EXTT1=
EXTT2=
EXTT3=
EXTT4=
EXTT5=
EXTT6=
EXTT7=
EXTT8=
EXTT9=
EXTT10=
EXTT11=
EXTT12=
EXTT13=
EXTT14=
EXTT15=
PLAYORDER=
